<?xml version="1.0" encoding="utf-8"?>
<!-- Generator: Adobe Illustrator 16.0.0, SVG Export Plug-In . SVG Version: 6.00 Build 0)  -->
<!DOCTYPE svg PUBLIC "-//W3C//DTD SVG 1.1//EN" "http://www.w3.org/Graphics/SVG/1.1/DTD/svg11.dtd">
<svg version="1.1" id="Layer_1" xmlns="http://www.w3.org/2000/svg" xmlns:xlink="http://www.w3.org/1999/xlink" x="0px" y="0px"
	 width="143px" height="35px" viewBox="0 0 143 35" enable-background="new 0 0 143 35" xml:space="preserve">
<title>BC_logo</title>
<g>
	<g>
		<path fill="#00EDFF" d="M31.325,6.91v7.91c0.723-0.723,1.504-1.265,2.344-1.626s1.738-0.542,2.695-0.542
			c2.08,0,3.848,0.786,5.303,2.358s2.183,3.589,2.183,6.05c0,2.373-0.752,4.357-2.256,5.955c-1.504,1.596-3.286,2.395-5.347,2.395
			c-0.918,0-1.772-0.164-2.563-0.49c-0.791-0.328-1.577-0.862-2.358-1.604V29h-3.97V6.91H31.325z M35.529,16.344
			c-1.26,0-2.305,0.43-3.135,1.289s-1.245,1.982-1.245,3.369c0,1.416,0.415,2.561,1.245,3.436c0.83,0.873,1.875,1.311,3.135,1.311
			c1.221,0,2.249-0.444,3.083-1.333s1.252-2.021,1.252-3.398c0-1.367-0.41-2.487-1.23-3.362
			C37.814,16.781,36.779,16.344,35.529,16.344z"/>
		<path fill="#00EDFF" d="M58.922,13.063h4V29h-4v-1.685c-0.779,0.742-1.563,1.276-2.348,1.604c-0.786,0.326-1.636,0.49-2.553,0.49
			c-2.058,0-3.838-0.799-5.341-2.395c-1.502-1.598-2.253-3.582-2.253-5.955c0-2.461,0.727-4.478,2.18-6.05
			c1.453-1.572,3.219-2.358,5.296-2.358c0.956,0,1.853,0.181,2.692,0.542c0.84,0.361,1.615,0.903,2.326,1.626V13.063z
			 M54.718,16.344c-1.236,0-2.263,0.437-3.08,1.311c-0.818,0.875-1.227,1.995-1.227,3.362c0,1.377,0.416,2.51,1.248,3.398
			s1.856,1.333,3.073,1.333c1.256,0,2.296-0.438,3.125-1.311c0.826-0.875,1.24-2.02,1.24-3.436c0-1.387-0.414-2.51-1.24-3.369
			C57.029,16.773,55.984,16.344,54.718,16.344z"/>
		<path fill="#00EDFF" d="M78.728,6.91h3.999V29h-3.999v-1.685c-0.78,0.742-1.563,1.276-2.349,1.604
			c-0.785,0.326-1.636,0.49-2.553,0.49c-2.059,0-3.839-0.799-5.341-2.395c-1.502-1.598-2.253-3.582-2.253-5.955
			c0-2.461,0.727-4.478,2.18-6.05c1.454-1.572,3.219-2.358,5.297-2.358c0.956,0,1.854,0.181,2.692,0.542s1.614,0.903,2.326,1.626
			V6.91z M74.523,16.344c-1.236,0-2.263,0.437-3.08,1.311c-0.817,0.875-1.227,1.995-1.227,3.362c0,1.377,0.416,2.51,1.248,3.398
			s1.856,1.333,3.073,1.333c1.256,0,2.297-0.438,3.124-1.311c0.827-0.875,1.241-2.02,1.241-3.436c0-1.387-0.414-2.51-1.241-3.369
			S75.789,16.344,74.523,16.344z"/>
		<path fill="#00EDFF" d="M96.525,15.289l-2.476,2.476c-1.006-0.996-1.919-1.494-2.739-1.494c-0.449,0-0.801,0.095-1.055,0.286
			s-0.381,0.427-0.381,0.71c0,0.215,0.08,0.413,0.242,0.593c0.16,0.181,0.559,0.427,1.193,0.74l1.465,0.732
			c1.543,0.762,2.603,1.538,3.179,2.329s0.864,1.719,0.864,2.783c0,1.416-0.52,2.598-1.561,3.545
			c-1.039,0.947-2.434,1.421-4.182,1.421c-2.324,0-4.18-0.908-5.566-2.725l2.461-2.681c0.469,0.547,1.018,0.989,1.648,1.325
			c0.629,0.338,1.188,0.506,1.677,0.506c0.527,0,0.952-0.127,1.274-0.381s0.483-0.547,0.483-0.879c0-0.615-0.581-1.216-1.743-1.802
			l-1.348-0.674c-2.578-1.299-3.867-2.925-3.867-4.878c0-1.26,0.485-2.336,1.457-3.23s2.215-1.34,3.729-1.34
			c1.035,0,2.009,0.227,2.922,0.681S95.891,14.439,96.525,15.289z"/>
		<path fill="#00EDFF" d="M102.149,24.825c0.635,0,1.177,0.222,1.626,0.667c0.449,0.443,0.674,0.983,0.674,1.618
			s-0.225,1.177-0.674,1.626s-0.991,0.674-1.626,0.674s-1.177-0.225-1.626-0.674s-0.674-0.991-0.674-1.626s0.225-1.175,0.674-1.618
			C100.973,25.047,101.515,24.825,102.149,24.825z"/>
		<path fill="#00EDFF" d="M108.845,7.188h3.999v5.874h2.373v3.442h-2.373V29h-3.999V16.505h-2.051v-3.442h2.051V7.188z"/>
		<path fill="#00EDFF" d="M117.326,13.063h3.999v1.831c0.684-0.752,1.443-1.313,2.279-1.685s1.747-0.557,2.734-0.557
			c0.996,0,1.896,0.244,2.697,0.732c0.801,0.488,1.446,1.201,1.935,2.139c0.635-0.938,1.414-1.65,2.338-2.139
			s1.933-0.732,3.027-0.732c1.134,0,2.13,0.264,2.99,0.791s1.479,1.216,1.854,2.065s0.564,2.231,0.564,4.146V29h-4.028v-8.086
			c0-1.807-0.225-3.03-0.674-3.669s-1.123-0.959-2.021-0.959c-0.684,0-1.297,0.195-1.838,0.586c-0.543,0.391-0.945,0.93-1.209,1.619
			c-0.264,0.688-0.396,1.794-0.396,3.317V29h-4.028v-7.72c0-1.426-0.105-2.458-0.315-3.099c-0.211-0.639-0.526-1.115-0.947-1.428
			s-0.93-0.469-1.527-0.469c-0.665,0-1.27,0.198-1.813,0.593c-0.543,0.396-0.949,0.95-1.219,1.663
			c-0.269,0.713-0.403,1.836-0.403,3.369V29h-3.999V13.063z"/>
	</g>
	<g>
		<polyline fill="#00EDFF" points="2,23.167 2,29 19.833,29 21.833,26.084 21.833,6.833 15.833,6.833 16.132,22.677 		"/>
		<polyline fill="#119093" points="15.833,6.833 2,23.167 10.167,23.167 16.016,16.503 		"/>
		<polyline fill="#0D5E5E" points="15.141,17.5 14.775,17.917 10.167,23.167 16.132,22.677 16.016,16.503 		"/>
	</g>
</g>
</svg>
